# xmcd CD database file
#
# Track frame offsets:
#	150
#	16047
#	26160
#	30557
#	39887
#	50567
#	62237
#	72232
#	79760
#	90592
#	103320
#	110425
#	118915
#	124520
#	131677
#	143302
#	151712
#	161565
#	172065
#	183257
#
# Disc length: 2536 seconds
#
# Revision: 1
# Processed by: cddbd v1.4PL0 Copyright (c) Steve Scherf et al.
# Submitted via: CDex 1.40Release
#
DISCID=0309e614
DTITLE=Duelling Banjos - 20 country classics
DYEAR=1995
DGENRE=Country
TTITLE0=Duelling Banjos
TTITLE1=Earl's breakdown
TTITLE2=Eight of january
TTITLE3=Farewell blues
TTITLE4=Reuben's train
TTITLE5=Pony Express
TTITLE6=Fire on the mountain
TTITLE7=Hard ain't it hard
TTITLE8=You're looking at country
TTITLE9=Movin' on
TTITLE10=Mountain dew
TTITLE11=Old Joe Clark
TTITLE12=Little Maggie
TTITLE13=Buffalo gals
TTITLE14=Riding the waves
TTITLE15=End of a dream
TTITLE16=Eight more miles to Louisville
TTITLE17=Rawhide
TTITLE18=Shuckin' the corn
TTITLE19=Foot tappin'
EXTD=YEAR: 1995 ID3G: 2
EXTT0=
EXTT1=
EXTT2=
EXTT3=
EXTT4=
EXTT5=
EXTT6=
EXTT7=
EXTT8=
EXTT9=
EXTT10=
EXTT11=
EXTT12=
EXTT13=
EXTT14=
EXTT15=
EXTT16=
EXTT17=
EXTT18=
EXTT19=
PLAYORDER=
